<?xml version="1.0" standalone="no"?>
<!DOCTYPE svg PUBLIC "-//W3C//DTD SVG 20010904//EN"
 "http://www.w3.org/TR/2001/REC-SVG-20010904/DTD/svg10.dtd">
<svg version="1.0" xmlns="http://www.w3.org/2000/svg"
 width="300.000000pt" height="314.000000pt" viewBox="0 0 300.000000 314.000000"
 preserveAspectRatio="xMidYMid meet">
<metadata>
Created by potrace 1.10, written by Peter Selinger 2001-2011
</metadata>
<g transform="translate(0.000000,314.000000) scale(0.100000,-0.100000)"
fill="#000000" stroke="none">
<path d="M1787 2986 c-21 -8 -48 -22 -59 -33 -32 -29 -58 -88 -58 -133 l0 -40
-349 0 c-222 0 -360 -4 -378 -11 -42 -15 -92 -68 -103 -109 -12 -41 -12 -942
0 -980 l7 -25 7 25 c4 14 8 236 9 495 2 522 1 513 70 555 30 19 52 20 369 20
228 0 345 4 362 11 24 12 36 35 36 77 0 12 3 22 8 22 4 0 6 -18 6 -39 -3 -70
64 -141 132 -141 71 0 142 64 145 130 1 20 2 21 6 5 3 -11 14 -30 26 -42 l20
-23 354 0 c393 0 404 -2 442 -63 l22 -35 0 -942 c-1 -684 -4 -947 -12 -963 -6
-12 -23 -32 -37 -44 -14 -13 -26 -24 -26 -25 -1 -2 -370 -5 -821 -8 -451 -3
-827 -7 -835 -10 -12 -4 -17 15 -26 100 -10 93 -28 151 -147 500 -74 217 -196
580 -272 805 -154 458 -152 452 -173 460 -16 6 -365 -109 -389 -128 -22 -17
-14 -65 31 -190 24 -67 151 -435 281 -817 130 -382 242 -702 249 -710 7 -8 68
-101 135 -207 123 -193 168 -247 218 -259 30 -8 49 2 77 40 17 23 21 42 21
114 0 48 -4 129 -9 179 l-8 93 835 2 c830 3 836 3 864 24 15 11 38 36 51 54
l22 33 0 957 0 957 -22 33 c-13 18 -36 43 -51 54 -28 20 -41 21 -407 24 l-378
3 -4 54 c-10 118 -129 193 -241 151z m107 -76 c14 -5 35 -24 46 -42 63 -100
-68 -209 -158 -133 -37 31 -46 66 -31 112 19 58 83 86 143 63z m-1359 -518 c9
-30 13 -57 9 -61 -21 -18 -347 -122 -353 -112 -12 18 -44 121 -40 125 2 2 81
31 174 63 122 43 173 56 181 49 7 -6 19 -35 29 -64z m38 -112 c4 -16 -4 -25
-41 -43 -25 -12 -50 -29 -55 -38 -11 -18 5 -69 238 -754 75 -220 138 -404 139
-410 1 -5 4 -14 7 -20 4 -5 19 -49 34 -98 15 -48 31 -90 36 -93 5 -3 9 -11 9
-19 0 -15 -93 -50 -113 -42 -7 3 -25 45 -41 93 -15 49 -35 107 -43 129 -18 49
-313 913 -354 1041 -18 53 -40 101 -53 113 -22 21 -25 21 -66 7 -48 -16 -60
-14 -60 12 0 15 54 42 115 58 6 2 60 21 120 43 61 22 113 40 116 40 4 1 9 -8
12 -19z m242 -750 l232 -685 -39 -14 c-22 -7 -41 -11 -43 -9 -5 5 -465 1358
-465 1368 0 8 60 29 74 26 4 -1 113 -310 241 -686z m-269 -72 c126 -370 230
-680 232 -689 2 -11 -8 -20 -29 -28 -18 -6 -34 -10 -35 -8 -2 2 -109 311 -237
688 l-234 684 31 12 c17 6 34 12 37 12 3 1 109 -302 235 -671z m529 -814 c8
-82 16 -162 17 -178 3 -27 0 -30 -80 -59 -45 -16 -84 -28 -86 -26 -2 2 -47 71
-99 154 l-95 150 155 52 c86 29 159 55 161 58 10 10 12 -4 27 -151z m29 -270
c7 -26 -8 -88 -27 -111 -17 -22 -47 -14 -88 25 -26 24 -38 43 -34 53 3 8 34
25 68 36 79 27 74 27 81 -3z"/>
<path d="M1140 2538 c-25 -13 -55 -38 -67 -57 -26 -39 -25 -2 -25 -929 1 -435
3 -511 17 -560 19 -67 55 -108 104 -122 50 -14 1344 -13 1394 1 48 13 102 67
111 110 3 18 6 351 6 740 0 754 0 749 -49 793 -49 44 -59 45 -771 46 l-676 0
-44 -22z m1447 -28 c66 -40 63 -4 63 -800 0 -796 3 -760 -63 -800 -31 -19 -55
-20 -722 -20 -666 0 -691 1 -722 20 -67 41 -63 -6 -67 781 -1 393 1 727 5 743
10 33 45 74 74 86 11 5 331 9 710 9 667 1 691 0 722 -19z"/>
<path d="M1260 2193 l0 -28 450 0 450 0 0 28 0 27 -450 0 -450 0 0 -27z"/>
<path d="M1260 1960 l0 -30 593 2 592 3 3 28 3 27 -595 0 -596 0 0 -30z"/>
<path d="M1260 1730 l0 -30 595 0 595 0 0 30 0 30 -595 0 -595 0 0 -30z"/>
<path d="M1260 1470 l0 -30 595 0 595 0 0 30 0 30 -595 0 -595 0 0 -30z"/>
<path d="M1260 1210 l0 -30 595 0 595 0 0 30 0 30 -595 0 -595 0 0 -30z"/>
<path d="M2293 1062 l-143 -3 0 -24 0 -25 150 0 150 0 0 24 c0 14 -3 26 -7 28
-5 2 -72 2 -150 0z"/>
</g>
</svg>
